HIERARCHY
ROOT Hips
{
    OFFSET 0.000000 0.000000 0.000000
    CHANNELS 6 Xposition Yposition Zposition Zrotation Xrotation Yrotation
    JOINT Spine
    {
        OFFSET -0.000000 8.359812 0.000000
        CHANNELS 3 Zrotation Xrotation Yrotation
        JOINT Spine1
        {
            OFFSET -0.000000 28.141317 0.000000
            CHANNELS 3 Zrotation Xrotation Yrotation
            JOINT Neck
            {
                OFFSET -0.000000 28.025745 2.547795
                CHANNELS 3 Zrotation Xrotation Yrotation
                JOINT Head
                {
                    OFFSET -0.000000 14.272848 -2.038978
                    CHANNELS 3 Zrotation Xrotation Yrotation
                    End Site
                    {
                        OFFSET -0.000000 25.487228 0.000000
                    }
                }
            }
            JOINT LeftShoulder
            {
                OFFSET 4.059574 26.120710 -0.180480
                CHANNELS 3 Zrotation Xrotation Yrotation
                JOINT LeftArm
                {
                    OFFSET 11.584161 0.000000 0.000000
                    CHANNELS 3 Zrotation Xrotation Yrotation
                    JOINT LeftForeArm
                    {
                        OFFSET 30.766815 0.000000 0.000000
                        CHANNELS 3 Zrotation Xrotation Yrotation
                        JOINT LeftHand
                        {
                            OFFSET 29.436810 0.000000 0.000000
                            CHANNELS 3 Zrotation Xrotation Yrotation
                            End Site
                            {
                                OFFSET 15.292337 0.000000 0.000000
                            }
                        }
                    }
                }
            }
            JOINT RightShoulder
            {
                OFFSET -4.095355 26.120710 -0.180480
                CHANNELS 3 Zrotation Xrotation Yrotation
                JOINT RightArm
                {
                    OFFSET -11.584161 0.000000 0.000000
                    CHANNELS 3 Zrotation Xrotation Yrotation
                    JOINT RightForeArm
                    {
                        OFFSET -30.766815 0.000000 0.000000
                        CHANNELS 3 Zrotation Xrotation Yrotation
                        JOINT RightHand
                        {
                            OFFSET -29.436810 0.000000 0.000000
                            CHANNELS 3 Zrotation Xrotation Yrotation
                            End Site
                            {
                                OFFSET -15.292337 0.000000 0.000000
                            }
                        }
                    }
                }
            }
        }
    }
    JOINT LeftUpLeg
    {
        OFFSET 10.194892 0.000000 0.000000
        CHANNELS 3 Zrotation Xrotation Yrotation
        JOINT LeftLeg
        {
            OFFSET -0.000000 -32.520012 0.000000
            CHANNELS 3 Zrotation Xrotation Yrotation
            JOINT LeftFoot
            {
                OFFSET -0.000000 -49.106510 0.000000
                CHANNELS 3 Zrotation Xrotation Yrotation
                JOINT LeftToeBase
                {
                    OFFSET -0.000000 -6.626679 15.292337
                    CHANNELS 3 Zrotation Xrotation Yrotation
                    End Site
                    {
                        OFFSET -0.000000 0.000000 4.077957
                    }
                }
            }
        }
    }
    JOINT RightUpLeg
    {
        OFFSET -10.194892 0.000000 0.000000
        CHANNELS 3 Zrotation Xrotation Yrotation
        JOINT RightLeg
        {
            OFFSET -0.000000 -32.520012 0.000000
            CHANNELS 3 Zrotation Xrotation Yrotation
            JOINT RightFoot
            {
                OFFSET -0.000000 -49.106510 0.000000
                CHANNELS 3 Zrotation Xrotation Yrotation
                JOINT RightToeBase
                {
                    OFFSET -0.000000 -6.626679 15.292337
                    CHANNELS 3 Zrotation Xrotation Yrotation
                    End Site
                    {
                        OFFSET -0.000000 0.000000 4.077957
                    }
                }
            }
        }
    }
}
MOTION
Frames:    5
Frame Time:    0.008333
-136.683044    88.572227    11.678312    -3.022657    -1.454855    80.373772    3.142240    -9.092191    0.146168    -0.492002    2.188283    -0.094821    4.581679    24.365000    10.402275    -10.024590    -2.770740    9.535294    15.544274    -2.230889    1.449848    -14.583208    -2.448986    5.324721    0.214418    -4.087533    3.049954    17.151337    -2.389174    11.281131    -16.053991    -1.187506    0.474428    20.768009    -5.844637    15.044404    -0.742639    -2.366974    -2.601275    -15.323060    -1.077714    -9.690306    5.147074    1.473966    -4.109393    -3.485503    -1.708928    -4.481907    0.483531    -2.895714    29.702330    0.000000    0.000000    0.000000    -0.138087    2.723078    1.768175    3.488403    -0.807389    -0.521644    -0.749447    -3.030121    -8.999699    0.000000    0.000000    0.000000    
-136.694931    88.571144    11.668718    -3.029616    -1.447751    80.353928    3.156976    -9.112894    0.133787    -0.505236    2.200638    -0.108135    4.609653    24.265358    10.452075    -10.054873    -2.506400    9.602774    15.547068    -2.225123    1.474095    -14.581878    -2.466825    5.297684    0.229053    -4.116842    3.053809    17.192184    -2.415146    11.278951    -16.078190    -1.221611    0.490192    20.823755    -5.551560    15.082842    -0.915695    -2.471829    -2.590640    -15.344069    -1.175272    -9.759721    5.117181    1.451210    -4.165252    -3.456772    -1.693393    -4.482313    0.515468    -2.896619    29.773802    0.000000    0.000000    0.000000    -0.163347    2.676100    1.753778    3.510842    -0.754453    -0.435427    -0.747484    -3.054864    -9.051438    0.000000    0.000000    0.000000    
-136.700272    88.571281    11.668200    -3.012662    -1.458317    80.330582    3.157326    -9.117050    0.133102    -0.483228    2.222357    -0.109863    4.614233    24.272785    10.449911    -10.072952    -2.421088    9.605615    15.555282    -2.247247    1.482340    -14.584715    -2.468785    5.272928    0.225317    -4.161838    3.045993    17.197094    -2.461596    11.265945    -16.154257    -1.338189    0.469381    20.903404    -5.376133    15.101027    -0.937438    -2.490038    -2.588050    -15.380877    -1.187601    -9.782949    5.111844    1.464057    -4.159805    -3.439601    -1.674386    -4.484433    0.529895    -2.916548    29.797186    0.000000    0.000000    0.000000    -0.156111    2.686457    1.778411    3.506360    -0.750149    -0.411441    -0.732133    -3.058573    -9.066010    0.000000    0.000000    0.000000    
-136.715027    88.569031    11.667157    -3.022664    -1.460125    80.297211    3.148553    -9.127875    0.136046    -0.448342    2.206594    -0.107195    4.626538    24.291628    10.449649    -10.113921    -2.314524    9.609788    15.528319    -2.236603    1.479459    -14.564451    -2.485160    5.252381    0.149468    -4.130287    3.092518    17.379786    -2.477712    10.824159    -16.164158    -1.322224    0.482236    20.879087    -5.532048    15.140193    -0.815558    -2.409367    -2.599442    -15.415484    -1.106712    -9.742504    5.112048    1.437701    -4.156190    -3.460965    -1.629660    -4.856229    0.642236    -2.941399    30.265537    0.000000    0.000000    0.000000    -0.154730    2.669790    1.779984    3.479337    -0.735910    -0.405742    -0.714313    -3.096064    -8.966651    0.000000    0.000000    0.000000    
-136.721680    88.568764    11.663035    -3.007314    -1.461593    80.269714    3.155748    -9.136371    0.135171    -0.444087    2.230217    -0.108819    4.571137    24.386517    10.438827    -10.082774    -2.399130    9.596166    15.561663    -2.256964    1.494868    -14.602194    -2.491752    5.239412    0.176909    -4.194383    3.063398    17.304653    -2.559565    10.761028    -16.177677    -1.333686    0.479059    20.913204    -5.282588    15.178127    -0.981708    -2.490945    -2.577100    -15.300363    -1.197981    -9.771372    5.100532    1.447962    -4.164549    -3.453562    -1.615593    -4.848045    0.675752    -2.941944    30.295544    0.000000    0.000000    0.000000    -0.161099    2.702960    1.806544    3.509703    -0.801949    -0.474179    -0.752131    -3.044825    -8.968877    0.000000    0.000000    0.000000    
